<svg width="157" height="75" viewBox="0 0 157 75" fill="none" xmlns="http://www.w3.org/2000/svg">
<path d="M0 18.999H4.47282V40.2735H0V18.999Z" fill="#F8F8F8"/>
<path d="M22.5873 32.6181C22.5873 32.6755 22.5586 33.0769 22.5013 33.8223H10.8318C11.0421 34.7781 11.539 35.5331 12.3227 36.0874C13.1064 36.6417 14.0813 36.9189 15.2473 36.9189C16.0501 36.9189 16.7573 36.8042 17.369 36.5748C17.9998 36.3264 18.5828 35.9441 19.118 35.428L21.4978 38.0084C20.045 39.6714 17.9233 40.5029 15.1326 40.5029C13.3932 40.5029 11.8544 40.1684 10.5164 39.4994C9.1784 38.8113 8.14621 37.8651 7.41985 36.6609C6.6935 35.4566 6.33032 34.0899 6.33032 32.5608C6.33032 31.0507 6.68394 29.6936 7.39118 28.4894C8.11754 27.266 9.10194 26.3199 10.3444 25.6508C11.606 24.9627 13.0109 24.6187 14.5592 24.6187C16.0692 24.6187 17.4359 24.9436 18.6592 25.5935C19.8826 26.2434 20.8383 27.18 21.5264 28.4033C22.2337 29.6076 22.5873 31.0125 22.5873 32.6181ZM14.5878 28.0019C13.5748 28.0019 12.7242 28.2887 12.036 28.8621C11.3479 29.4355 10.9274 30.2192 10.7745 31.2132H18.3725C18.2196 30.2384 17.7991 29.4642 17.111 28.8908C16.4228 28.2982 15.5818 28.0019 14.5878 28.0019Z" fill="#F8F8F8"/>
<path d="M34.3673 39.5282C33.9277 39.8531 33.383 40.1016 32.7331 40.2736C32.1023 40.4265 31.4333 40.503 30.7261 40.503C28.8911 40.503 27.467 40.0347 26.454 39.0981C25.46 38.1615 24.963 36.7852 24.963 34.9693V28.6328H22.5833V25.1922H24.963V21.4362H29.4358V25.1922H33.2779V28.6328H29.4358V34.912C29.4358 35.5619 29.5983 36.0684 29.9233 36.4316C30.2673 36.7756 30.7452 36.9477 31.3569 36.9477C32.0641 36.9477 32.6662 36.7565 33.1632 36.3742L34.3673 39.5282Z" fill="#F8F8F8"/>
<path d="M55.4862 24.6187C57.4168 24.6187 58.9459 25.1921 60.0737 26.339C61.2206 27.4667 61.794 29.1679 61.794 31.4426V40.2735H57.3212V32.1307C57.3212 30.9074 57.0631 29.9994 56.5471 29.4069C56.0501 28.7952 55.3333 28.4894 54.3967 28.4894C53.3454 28.4894 52.5139 28.8334 51.9022 29.5216C51.2905 30.1906 50.9847 31.1941 50.9847 32.5321V40.2735H46.5119V32.1307C46.5119 29.7031 45.537 28.4894 43.5873 28.4894C42.5552 28.4894 41.7332 28.8334 41.1216 29.5216C40.5099 30.1906 40.2041 31.1941 40.2041 32.5321V40.2735H35.7312V24.848H40.0034V26.6257C40.5768 25.9758 41.2745 25.4788 42.0964 25.1348C42.9375 24.7907 43.855 24.6187 44.8489 24.6187C45.9384 24.6187 46.9228 24.8385 47.8021 25.2781C48.6814 25.6986 49.3886 26.3199 49.9238 27.1418C50.5546 26.339 51.3479 25.7177 52.3036 25.2781C53.2785 24.8385 54.3393 24.6187 55.4862 24.6187Z" fill="#F8F8F8"/>
<path d="M79.9345 32.6181C79.9345 32.6755 79.9058 33.0769 79.8485 33.8223H68.179C68.3892 34.7781 68.8862 35.5331 69.6699 36.0874C70.4536 36.6417 71.4285 36.9189 72.5945 36.9189C73.3973 36.9189 74.1045 36.8042 74.7162 36.5748C75.347 36.3264 75.93 35.9441 76.4652 35.428L78.8449 38.0084C77.3922 39.6714 75.2705 40.5029 72.4798 40.5029C70.7403 40.5029 69.2016 40.1684 67.8636 39.4994C66.5256 38.8113 65.4934 37.8651 64.767 36.6609C64.0407 35.4566 63.6775 34.0899 63.6775 32.5608C63.6775 31.0507 64.0311 29.6936 64.7384 28.4894C65.4647 27.266 66.4491 26.3199 67.6916 25.6508C68.9531 24.9627 70.358 24.6187 71.9063 24.6187C73.4164 24.6187 74.7831 24.9436 76.0064 25.5935C77.2298 26.2434 78.1855 27.18 78.8736 28.4033C79.5808 29.6076 79.9345 31.0125 79.9345 32.6181ZM71.935 28.0019C70.9219 28.0019 70.0713 28.2887 69.3832 28.8621C68.6951 29.4355 68.2746 30.2192 68.1216 31.2132H75.7197C75.5668 30.2384 75.1463 29.4642 74.4581 28.8908C73.77 28.2982 72.929 28.0019 71.935 28.0019Z" fill="#F8F8F8"/>
<path d="M106.086 24.848L103.018 40.2735H98.7747L99.0615 38.7539C97.7808 39.9199 96.2038 40.5029 94.3306 40.5029C93.1264 40.5029 92.0177 40.2257 91.0047 39.6714C89.9916 39.1171 89.1792 38.3238 88.5675 37.2916C87.975 36.2403 87.6787 35.0074 87.6787 33.593C87.6787 31.8918 88.0514 30.3626 88.7969 29.0055C89.5615 27.6292 90.5937 26.5588 91.8935 25.7942C93.1933 25.0105 94.6269 24.6187 96.1943 24.6187C98.5645 24.6187 100.237 25.3928 101.212 26.9411L101.613 24.848H106.086ZM95.7068 36.8042C96.5861 36.8042 97.3698 36.594 98.0579 36.1734C98.7461 35.7338 99.2813 35.1317 99.6636 34.3671C100.046 33.6025 100.237 32.7233 100.237 31.7293C100.237 30.678 99.9216 29.8465 99.2908 29.2348C98.6792 28.6232 97.819 28.3173 96.7104 28.3173C95.8311 28.3173 95.0474 28.5372 94.3593 28.9768C93.6711 29.3973 93.1359 29.9899 92.7536 30.7544C92.3713 31.519 92.1802 32.3983 92.1802 33.3923C92.1802 34.4436 92.486 35.2751 93.0977 35.8867C93.7285 36.4984 94.5982 36.8042 95.7068 36.8042Z" fill="url(#paint0_linear)"/>
<path d="M111.632 40.5029C110.294 40.5029 109.023 40.3595 107.819 40.0728C106.634 39.767 105.707 39.3751 105.038 38.8973L106.758 35.6573C107.427 36.097 108.239 36.4506 109.195 36.7182C110.17 36.9858 111.145 37.1196 112.119 37.1196C113.133 37.1196 113.888 36.9954 114.385 36.7469C114.882 36.4793 115.13 36.1065 115.13 35.6287C115.13 35.2464 114.91 34.9692 114.471 34.7972C114.031 34.6252 113.324 34.4436 112.349 34.2524C111.24 34.0422 110.323 33.8128 109.596 33.5643C108.889 33.3158 108.268 32.9144 107.733 32.3601C107.217 31.7866 106.959 31.0125 106.959 30.0376C106.959 28.3364 107.666 27.008 109.08 26.0523C110.514 25.0965 112.387 24.6187 114.7 24.6187C115.77 24.6187 116.812 24.7333 117.825 24.9627C118.838 25.1921 119.698 25.5075 120.406 25.9089L118.8 29.1775C117.538 28.3938 116.019 28.0019 114.241 28.0019C113.266 28.0019 112.521 28.1453 112.005 28.432C111.508 28.7187 111.259 29.0819 111.259 29.5216C111.259 29.923 111.479 30.2192 111.919 30.4104C112.358 30.5824 113.094 30.7736 114.127 30.9838C115.216 31.1941 116.105 31.4235 116.793 31.6719C117.5 31.9013 118.112 32.2932 118.628 32.8475C119.144 33.4018 119.402 34.1568 119.402 35.1126C119.402 36.8329 118.676 38.1614 117.223 39.098C115.79 40.0346 113.926 40.5029 111.632 40.5029Z" fill="url(#paint1_linear)"/>
<path d="M131.595 31.5573L136.899 40.2735H131.71L128.04 34.2811L125.316 36.5462L124.57 40.2735H120.097L124.341 18.999H128.814L126.434 30.8978L133.831 24.848H139.652L131.595 31.5573Z" fill="url(#paint2_linear)"/>
<path d="M81.0842 15.9024V8.73438C81.0842 5.56737 83.6516 3 86.8186 3H148.463C151.63 3 154.198 5.56737 154.198 8.73438V48.8751C154.198 52.0421 151.63 54.6094 148.463 54.6094H138.428L141.782 70.2603C142.075 71.6282 140.436 72.563 139.408 71.6141L124.092 57.4766H86.8186C83.6516 57.4766 81.0842 54.9093 81.0842 51.7422V48.8751" stroke="url(#paint3_linear)" stroke-width="4.30079"/>
<defs>
<linearGradient id="paint0_linear" x1="87.6787" y1="18.999" x2="99.7578" y2="53.1104" gradientUnits="userSpaceOnUse">
<stop stop-color="#485BFF"/>
<stop offset="1" stop-color="#FF59F8"/>
</linearGradient>
<linearGradient id="paint1_linear" x1="87.6788" y1="18.999" x2="99.7579" y2="53.1104" gradientUnits="userSpaceOnUse">
<stop stop-color="#485BFF"/>
<stop offset="1" stop-color="#FF59F8"/>
</linearGradient>
<linearGradient id="paint2_linear" x1="87.6786" y1="18.999" x2="99.7577" y2="53.1105" gradientUnits="userSpaceOnUse">
<stop stop-color="#485BFF"/>
<stop offset="1" stop-color="#FF59F8"/>
</linearGradient>
<linearGradient id="paint3_linear" x1="81.0842" y1="3" x2="141.295" y2="77.547" gradientUnits="userSpaceOnUse">
<stop stop-color="#485BFF"/>
<stop offset="1" stop-color="#FF59F8"/>
</linearGradient>
</defs>
</svg>
